<svg class="rich-terminal" viewBox="0 0 1238 879.5999999999999" xmlns="http://www.w3.org/2000/svg">
    <!-- Generated with Rich https://www.textualize.io -->
    <style>

    @font-face {
        font-family: "Fira Code";
        src: local("FiraCode-Regular"),
                url("https://cdnjs.cloudflare.com/ajax/libs/firacode/6.2.0/woff2/FiraCode-Regular.woff2") format("woff2"),
                url("https://cdnjs.cloudflare.com/ajax/libs/firacode/6.2.0/woff/FiraCode-Regular.woff") format("woff");
        font-style: normal;
        font-weight: 400;
    }
    @font-face {
        font-family: "Fira Code";
        src: local("FiraCode-Bold"),
                url("https://cdnjs.cloudflare.com/ajax/libs/firacode/6.2.0/woff2/FiraCode-Bold.woff2") format("woff2"),
                url("https://cdnjs.cloudflare.com/ajax/libs/firacode/6.2.0/woff/FiraCode-Bold.woff") format("woff");
        font-style: bold;
        font-weight: 700;
    }

    .terminal-matrix {
        font-family: Fira Code, monospace;
        font-size: 20px;
        line-height: 24.4px;
        font-variant-east-asian: full-width;
    }

    .terminal-title {
        font-size: 18px;
        font-weight: bold;
        font-family: arial;
    }

    .terminal-r1 { fill: #c5c8c6 }
.terminal-r2 { fill: #949494 }
.terminal-r3 { fill: #444444 }
.terminal-r4 { fill: #bebebe;font-weight: bold }
.terminal-r5 { fill: #a4a4a4 }
.terminal-r6 { fill: #949494;font-weight: bold }
.terminal-r7 { fill: #eaeaea }
.terminal-r8 { fill: #bebebe }
.terminal-r9 { fill: #656565;font-weight: bold }
.terminal-r10 { fill: #e0e0e0 }
.terminal-r11 { fill: #e0e0e0;font-weight: bold }
.terminal-r12 { fill: #999999 }
.terminal-r13 { fill: #cbcbcb }
.terminal-r14 { fill: #ffffff }
.terminal-r15 { fill: #ffffff;font-weight: bold }
.terminal-r16 { fill: #121212 }
    </style>

    <defs>
    <clipPath id="terminal-clip-terminal">
      <rect x="0" y="0" width="1219.0" height="828.5999999999999" />
    </clipPath>
    <clipPath id="terminal-line-0">
    <rect x="0" y="1.5" width="1220" height="24.65"/>
            </clipPath>
<clipPath id="terminal-line-1">
    <rect x="0" y="25.9" width="1220" height="24.65"/>
            </clipPath>
<clipPath id="terminal-line-2">
    <rect x="0" y="50.3" width="1220" height="24.65"/>
            </clipPath>
<clipPath id="terminal-line-3">
    <rect x="0" y="74.7" width="1220" height="24.65"/>
            </clipPath>
<clipPath id="terminal-line-4">
    <rect x="0" y="99.1" width="1220" height="24.65"/>
            </clipPath>
<clipPath id="terminal-line-5">
    <rect x="0" y="123.5" width="1220" height="24.65"/>
            </clipPath>
<clipPath id="terminal-line-6">
    <rect x="0" y="147.9" width="1220" height="24.65"/>
            </clipPath>
<clipPath id="terminal-line-7">
    <rect x="0" y="172.3" width="1220" height="24.65"/>
            </clipPath>
<clipPath id="terminal-line-8">
    <rect x="0" y="196.7" width="1220" height="24.65"/>
            </clipPath>
<clipPath id="terminal-line-9">
    <rect x="0" y="221.1" width="1220" height="24.65"/>
            </clipPath>
<clipPath id="terminal-line-10">
    <rect x="0" y="245.5" width="1220" height="24.65"/>
            </clipPath>
<clipPath id="terminal-line-11">
    <rect x="0" y="269.9" width="1220" height="24.65"/>
            </clipPath>
<clipPath id="terminal-line-12">
    <rect x="0" y="294.3" width="1220" height="24.65"/>
            </clipPath>
<clipPath id="terminal-line-13">
    <rect x="0" y="318.7" width="1220" height="24.65"/>
            </clipPath>
<clipPath id="terminal-line-14">
    <rect x="0" y="343.1" width="1220" height="24.65"/>
            </clipPath>
<clipPath id="terminal-line-15">
    <rect x="0" y="367.5" width="1220" height="24.65"/>
            </clipPath>
<clipPath id="terminal-line-16">
    <rect x="0" y="391.9" width="1220" height="24.65"/>
            </clipPath>
<clipPath id="terminal-line-17">
    <rect x="0" y="416.3" width="1220" height="24.65"/>
            </clipPath>
<clipPath id="terminal-line-18">
    <rect x="0" y="440.7" width="1220" height="24.65"/>
            </clipPath>
<clipPath id="terminal-line-19">
    <rect x="0" y="465.1" width="1220" height="24.65"/>
            </clipPath>
<clipPath id="terminal-line-20">
    <rect x="0" y="489.5" width="1220" height="24.65"/>
            </clipPath>
<clipPath id="terminal-line-21">
    <rect x="0" y="513.9" width="1220" height="24.65"/>
            </clipPath>
<clipPath id="terminal-line-22">
    <rect x="0" y="538.3" width="1220" height="24.65"/>
            </clipPath>
<clipPath id="terminal-line-23">
    <rect x="0" y="562.7" width="1220" height="24.65"/>
            </clipPath>
<clipPath id="terminal-line-24">
    <rect x="0" y="587.1" width="1220" height="24.65"/>
            </clipPath>
<clipPath id="terminal-line-25">
    <rect x="0" y="611.5" width="1220" height="24.65"/>
            </clipPath>
<clipPath id="terminal-line-26">
    <rect x="0" y="635.9" width="1220" height="24.65"/>
            </clipPath>
<clipPath id="terminal-line-27">
    <rect x="0" y="660.3" width="1220" height="24.65"/>
            </clipPath>
<clipPath id="terminal-line-28">
    <rect x="0" y="684.7" width="1220" height="24.65"/>
            </clipPath>
<clipPath id="terminal-line-29">
    <rect x="0" y="709.1" width="1220" height="24.65"/>
            </clipPath>
<clipPath id="terminal-line-30">
    <rect x="0" y="733.5" width="1220" height="24.65"/>
            </clipPath>
<clipPath id="terminal-line-31">
    <rect x="0" y="757.9" width="1220" height="24.65"/>
            </clipPath>
<clipPath id="terminal-line-32">
    <rect x="0" y="782.3" width="1220" height="24.65"/>
            </clipPath>
    </defs>

    <rect fill="#292929" stroke="rgba(255,255,255,0.35)" stroke-width="1" x="1" y="1" width="1236" height="877.6" rx="8"/><text class="terminal-title" fill="#c5c8c6" text-anchor="middle" x="618" y="27">Icarus</text>
            <g transform="translate(26,22)">
            <circle cx="0" cy="0" r="7" fill="#ff5f57"/>
            <circle cx="22" cy="0" r="7" fill="#febc2e"/>
            <circle cx="44" cy="0" r="7" fill="#28c840"/>
            </g>
        
    <g transform="translate(9, 41)" clip-path="url(#terminal-clip-terminal)">
    <rect fill="#1b1b1b" x="0" y="1.5" width="24.4" height="24.65" shape-rendering="crispEdges"/><rect fill="#1b1b1b" x="24.4" y="1.5" width="268.4" height="24.65" shape-rendering="crispEdges"/><rect fill="#1b1b1b" x="292.8" y="1.5" width="927.2" height="24.65" shape-rendering="crispEdges"/><rect fill="#131313" x="0" y="25.9" width="1220" height="24.65" shape-rendering="crispEdges"/><rect fill="#131313" x="0" y="50.3" width="24.4" height="24.65" shape-rendering="crispEdges"/><rect fill="#1b1b1b" x="24.4" y="50.3" width="1171.2" height="24.65" shape-rendering="crispEdges"/><rect fill="#131313" x="1195.6" y="50.3" width="24.4" height="24.65" shape-rendering="crispEdges"/><rect fill="#131313" x="0" y="74.7" width="24.4" height="24.65" shape-rendering="crispEdges"/><rect fill="#1b1b1b" x="24.4" y="74.7" width="12.2" height="24.65" shape-rendering="crispEdges"/><rect fill="#1b1b1b" x="36.6" y="74.7" width="1146.8" height="24.65" shape-rendering="crispEdges"/><rect fill="#1b1b1b" x="1183.4" y="74.7" width="12.2" height="24.65" shape-rendering="crispEdges"/><rect fill="#131313" x="1195.6" y="74.7" width="24.4" height="24.65" shape-rendering="crispEdges"/><rect fill="#131313" x="0" y="99.1" width="24.4" height="24.65" shape-rendering="crispEdges"/><rect fill="#1b1b1b" x="24.4" y="99.1" width="12.2" height="24.65" shape-rendering="crispEdges"/><rect fill="#1b1b1b" x="36.6" y="99.1" width="24.4" height="24.65" shape-rendering="crispEdges"/><rect fill="#1b1b1b" x="61" y="99.1" width="73.2" height="24.65" shape-rendering="crispEdges"/><rect fill="#1b1b1b" x="134.2" y="99.1" width="1049.2" height="24.65" shape-rendering="crispEdges"/><rect fill="#1b1b1b" x="1183.4" y="99.1" width="12.2" height="24.65" shape-rendering="crispEdges"/><rect fill="#131313" x="1195.6" y="99.1" width="24.4" height="24.65" shape-rendering="crispEdges"/><rect fill="#131313" x="0" y="123.5" width="24.4" height="24.65" shape-rendering="crispEdges"/><rect fill="#1b1b1b" x="24.4" y="123.5" width="12.2" height="24.65" shape-rendering="crispEdges"/><rect fill="#1b1b1b" x="36.6" y="123.5" width="24.4" height="24.65" shape-rendering="crispEdges"/><rect fill="#1b1b1b" x="61" y="123.5" width="402.6" height="24.65" shape-rendering="crispEdges"/><rect fill="#1b1b1b" x="463.6" y="123.5" width="719.8" height="24.65" shape-rendering="crispEdges"/><rect fill="#1b1b1b" x="1183.4" y="123.5" width="12.2" height="24.65" shape-rendering="crispEdges"/><rect fill="#131313" x="1195.6" y="123.5" width="24.4" height="24.65" shape-rendering="crispEdges"/><rect fill="#131313" x="0" y="147.9" width="24.4" height="24.65" shape-rendering="crispEdges"/><rect fill="#1b1b1b" x="24.4" y="147.9" width="12.2" height="24.65" shape-rendering="crispEdges"/><rect fill="#1b1b1b" x="36.6" y="147.9" width="24.4" height="24.65" shape-rendering="crispEdges"/><rect fill="#1b1b1b" x="61" y="147.9" width="841.8" height="24.65" shape-rendering="crispEdges"/><rect fill="#1b1b1b" x="902.8" y="147.9" width="280.6" height="24.65" shape-rendering="crispEdges"/><rect fill="#1b1b1b" x="1183.4" y="147.9" width="12.2" height="24.65" shape-rendering="crispEdges"/><rect fill="#131313" x="1195.6" y="147.9" width="24.4" height="24.65" shape-rendering="crispEdges"/><rect fill="#131313" x="0" y="172.3" width="24.4" height="24.65" shape-rendering="crispEdges"/><rect fill="#1b1b1b" x="24.4" y="172.3" width="12.2" height="24.65" shape-rendering="crispEdges"/><rect fill="#1b1b1b" x="36.6" y="172.3" width="1146.8" height="24.65" shape-rendering="crispEdges"/><rect fill="#1b1b1b" x="1183.4" y="172.3" width="12.2" height="24.65" shape-rendering="crispEdges"/><rect fill="#131313" x="1195.6" y="172.3" width="24.4" height="24.65" shape-rendering="crispEdges"/><rect fill="#131313" x="0" y="196.7" width="24.4" height="24.65" shape-rendering="crispEdges"/><rect fill="#1b1b1b" x="24.4" y="196.7" width="1171.2" height="24.65" shape-rendering="crispEdges"/><rect fill="#131313" x="1195.6" y="196.7" width="24.4" height="24.65" shape-rendering="crispEdges"/><rect fill="#131313" x="0" y="221.1" width="1220" height="24.65" shape-rendering="crispEdges"/><rect fill="#131313" x="0" y="245.5" width="24.4" height="24.65" shape-rendering="crispEdges"/><rect fill="#131313" x="24.4" y="245.5" width="12.2" height="24.65" shape-rendering="crispEdges"/><rect fill="#131313" x="36.6" y="245.5" width="12.2" height="24.65" shape-rendering="crispEdges"/><rect fill="#131313" x="48.8" y="245.5" width="36.6" height="24.65" shape-rendering="crispEdges"/><rect fill="#131313" x="85.4" y="245.5" width="1134.6" height="24.65" shape-rendering="crispEdges"/><rect fill="#131313" x="0" y="269.9" width="24.4" height="24.65" shape-rendering="crispEdges"/><rect fill="#131313" x="24.4" y="269.9" width="12.2" height="24.65" shape-rendering="crispEdges"/><rect fill="#131313" x="36.6" y="269.9" width="12.2" height="24.65" shape-rendering="crispEdges"/><rect fill="#131313" x="48.8" y="269.9" width="463.6" height="24.65" shape-rendering="crispEdges"/><rect fill="#131313" x="512.4" y="269.9" width="707.6" height="24.65" shape-rendering="crispEdges"/><rect fill="#131313" x="0" y="294.3" width="1220" height="24.65" shape-rendering="crispEdges"/><rect fill="#131313" x="0" y="318.7" width="24.4" height="24.65" shape-rendering="crispEdges"/><rect fill="#131313" x="24.4" y="318.7" width="12.2" height="24.65" shape-rendering="crispEdges"/><rect fill="#131313" x="36.6" y="318.7" width="12.2" height="24.65" shape-rendering="crispEdges"/><rect fill="#131313" x="48.8" y="318.7" width="73.2" height="24.65" shape-rendering="crispEdges"/><rect fill="#131313" x="122" y="318.7" width="1098" height="24.65" shape-rendering="crispEdges"/><rect fill="#131313" x="0" y="343.1" width="24.4" height="24.65" shape-rendering="crispEdges"/><rect fill="#131313" x="24.4" y="343.1" width="12.2" height="24.65" shape-rendering="crispEdges"/><rect fill="#131313" x="36.6" y="343.1" width="1183.4" height="24.65" shape-rendering="crispEdges"/><rect fill="#131313" x="0" y="367.5" width="24.4" height="24.65" shape-rendering="crispEdges"/><rect fill="#131313" x="24.4" y="367.5" width="12.2" height="24.65" shape-rendering="crispEdges"/><rect fill="#131313" x="36.6" y="367.5" width="1183.4" height="24.65" shape-rendering="crispEdges"/><rect fill="#131313" x="0" y="391.9" width="24.4" height="24.65" shape-rendering="crispEdges"/><rect fill="#131313" x="24.4" y="391.9" width="12.2" height="24.65" shape-rendering="crispEdges"/><rect fill="#131313" x="36.6" y="391.9" width="36.6" height="24.65" shape-rendering="crispEdges"/><rect fill="#131313" x="73.2" y="391.9" width="414.8" height="24.65" shape-rendering="crispEdges"/><rect fill="#131313" x="488" y="391.9" width="256.2" height="24.65" shape-rendering="crispEdges"/><rect fill="#131313" x="744.2" y="391.9" width="427" height="24.65" shape-rendering="crispEdges"/><rect fill="#131313" x="1171.2" y="391.9" width="48.8" height="24.65" shape-rendering="crispEdges"/><rect fill="#131313" x="0" y="416.3" width="24.4" height="24.65" shape-rendering="crispEdges"/><rect fill="#131313" x="24.4" y="416.3" width="12.2" height="24.65" shape-rendering="crispEdges"/><rect fill="#131313" x="36.6" y="416.3" width="1183.4" height="24.65" shape-rendering="crispEdges"/><rect fill="#131313" x="0" y="440.7" width="24.4" height="24.65" shape-rendering="crispEdges"/><rect fill="#131313" x="24.4" y="440.7" width="12.2" height="24.65" shape-rendering="crispEdges"/><rect fill="#131313" x="36.6" y="440.7" width="36.6" height="24.65" shape-rendering="crispEdges"/><rect fill="#131313" x="73.2" y="440.7" width="292.8" height="24.65" shape-rendering="crispEdges"/><rect fill="#131313" x="366" y="440.7" width="97.6" height="24.65" shape-rendering="crispEdges"/><rect fill="#131313" x="463.6" y="440.7" width="207.4" height="24.65" shape-rendering="crispEdges"/><rect fill="#131313" x="671" y="440.7" width="549" height="24.65" shape-rendering="crispEdges"/><rect fill="#131313" x="0" y="465.1" width="24.4" height="24.65" shape-rendering="crispEdges"/><rect fill="#131313" x="24.4" y="465.1" width="12.2" height="24.65" shape-rendering="crispEdges"/><rect fill="#131313" x="36.6" y="465.1" width="1183.4" height="24.65" shape-rendering="crispEdges"/><rect fill="#131313" x="0" y="489.5" width="24.4" height="24.65" shape-rendering="crispEdges"/><rect fill="#131313" x="24.4" y="489.5" width="12.2" height="24.65" shape-rendering="crispEdges"/><rect fill="#131313" x="36.6" y="489.5" width="36.6" height="24.65" shape-rendering="crispEdges"/><rect fill="#131313" x="73.2" y="489.5" width="24.4" height="24.65" shape-rendering="crispEdges"/><rect fill="#131313" x="97.6" y="489.5" width="280.6" height="24.65" shape-rendering="crispEdges"/><rect fill="#131313" x="378.2" y="489.5" width="841.8" height="24.65" shape-rendering="crispEdges"/><rect fill="#131313" x="0" y="513.9" width="24.4" height="24.65" shape-rendering="crispEdges"/><rect fill="#131313" x="24.4" y="513.9" width="12.2" height="24.65" shape-rendering="crispEdges"/><rect fill="#131313" x="36.6" y="513.9" width="36.6" height="24.65" shape-rendering="crispEdges"/><rect fill="#131313" x="73.2" y="513.9" width="24.4" height="24.65" shape-rendering="crispEdges"/><rect fill="#131313" x="97.6" y="513.9" width="231.8" height="24.65" shape-rendering="crispEdges"/><rect fill="#131313" x="329.4" y="513.9" width="890.6" height="24.65" shape-rendering="crispEdges"/><rect fill="#131313" x="0" y="538.3" width="24.4" height="24.65" shape-rendering="crispEdges"/><rect fill="#131313" x="24.4" y="538.3" width="12.2" height="24.65" shape-rendering="crispEdges"/><rect fill="#131313" x="36.6" y="538.3" width="1183.4" height="24.65" shape-rendering="crispEdges"/><rect fill="#131313" x="0" y="562.7" width="24.4" height="24.65" shape-rendering="crispEdges"/><rect fill="#131313" x="24.4" y="562.7" width="12.2" height="24.65" shape-rendering="crispEdges"/><rect fill="#131313" x="36.6" y="562.7" width="36.6" height="24.65" shape-rendering="crispEdges"/><rect fill="#111111" x="73.2" y="562.7" width="1098" height="24.65" shape-rendering="crispEdges"/><rect fill="#131313" x="1171.2" y="562.7" width="48.8" height="24.65" shape-rendering="crispEdges"/><rect fill="#131313" x="0" y="587.1" width="24.4" height="24.65" shape-rendering="crispEdges"/><rect fill="#131313" x="24.4" y="587.1" width="12.2" height="24.65" shape-rendering="crispEdges"/><rect fill="#131313" x="36.6" y="587.1" width="36.6" height="24.65" shape-rendering="crispEdges"/><rect fill="#111111" x="73.2" y="587.1" width="24.4" height="24.65" shape-rendering="crispEdges"/><rect fill="#111111" x="97.6" y="587.1" width="61" height="24.65" shape-rendering="crispEdges"/><rect fill="#111111" x="158.6" y="587.1" width="12.2" height="24.65" shape-rendering="crispEdges"/><rect fill="#111111" x="170.8" y="587.1" width="85.4" height="24.65" shape-rendering="crispEdges"/><rect fill="#111111" x="256.2" y="587.1" width="12.2" height="24.65" shape-rendering="crispEdges"/><rect fill="#111111" x="268.4" y="587.1" width="73.2" height="24.65" shape-rendering="crispEdges"/><rect fill="#111111" x="341.6" y="587.1" width="12.2" height="24.65" shape-rendering="crispEdges"/><rect fill="#111111" x="353.8" y="587.1" width="73.2" height="24.65" shape-rendering="crispEdges"/><rect fill="#111111" x="427" y="587.1" width="12.2" height="24.65" shape-rendering="crispEdges"/><rect fill="#111111" x="439.2" y="587.1" width="732" height="24.65" shape-rendering="crispEdges"/><rect fill="#131313" x="1171.2" y="587.1" width="48.8" height="24.65" shape-rendering="crispEdges"/><rect fill="#131313" x="0" y="611.5" width="24.4" height="24.65" shape-rendering="crispEdges"/><rect fill="#131313" x="24.4" y="611.5" width="12.2" height="24.65" shape-rendering="crispEdges"/><rect fill="#131313" x="36.6" y="611.5" width="36.6" height="24.65" shape-rendering="crispEdges"/><rect fill="#111111" x="73.2" y="611.5" width="1098" height="24.65" shape-rendering="crispEdges"/><rect fill="#131313" x="1171.2" y="611.5" width="48.8" height="24.65" shape-rendering="crispEdges"/><rect fill="#131313" x="0" y="635.9" width="24.4" height="24.65" shape-rendering="crispEdges"/><rect fill="#131313" x="24.4" y="635.9" width="12.2" height="24.65" shape-rendering="crispEdges"/><rect fill="#131313" x="36.6" y="635.9" width="1183.4" height="24.65" shape-rendering="crispEdges"/><rect fill="#131313" x="0" y="660.3" width="1220" height="24.65" shape-rendering="crispEdges"/><rect fill="#131313" x="0" y="684.7" width="1220" height="24.65" shape-rendering="crispEdges"/><rect fill="#131313" x="0" y="709.1" width="1220" height="24.65" shape-rendering="crispEdges"/><rect fill="#131313" x="0" y="733.5" width="1220" height="24.65" shape-rendering="crispEdges"/><rect fill="#131313" x="0" y="757.9" width="24.4" height="24.65" shape-rendering="crispEdges"/><rect fill="#222222" x="24.4" y="757.9" width="1195.6" height="24.65" shape-rendering="crispEdges"/><rect fill="#131313" x="0" y="782.3" width="24.4" height="24.65" shape-rendering="crispEdges"/><rect fill="#222222" x="24.4" y="782.3" width="12.2" height="24.65" shape-rendering="crispEdges"/><rect fill="#222222" x="36.6" y="782.3" width="12.2" height="24.65" shape-rendering="crispEdges"/><rect fill="#222222" x="48.8" y="782.3" width="12.2" height="24.65" shape-rendering="crispEdges"/><rect fill="#222222" x="61" y="782.3" width="12.2" height="24.65" shape-rendering="crispEdges"/><rect fill="#222222" x="73.2" y="782.3" width="12.2" height="24.65" shape-rendering="crispEdges"/><rect fill="#222222" x="85.4" y="782.3" width="414.8" height="24.65" shape-rendering="crispEdges"/><rect fill="#e0e0e0" x="500.2" y="782.3" width="12.2" height="24.65" shape-rendering="crispEdges"/><rect fill="#222222" x="512.4" y="782.3" width="707.6" height="24.65" shape-rendering="crispEdges"/><rect fill="#1b1b1b" x="0" y="806.7" width="24.4" height="24.65" shape-rendering="crispEdges"/><rect fill="#1b1b1b" x="24.4" y="806.7" width="817.4" height="24.65" shape-rendering="crispEdges"/><rect fill="#1b1b1b" x="841.8" y="806.7" width="378.2" height="24.65" shape-rendering="crispEdges"/>
    <g class="terminal-matrix">
    <text class="terminal-r2" x="24.4" y="20" textLength="268.4" clip-path="url(#terminal-line-0)">/workspace/icarus-demo</text><text class="terminal-r1" x="1220" y="20" textLength="12.2" clip-path="url(#terminal-line-0)">
</text><text class="terminal-r1" x="1220" y="44.4" textLength="12.2" clip-path="url(#terminal-line-1)">
</text><text class="terminal-r3" x="24.4" y="68.8" textLength="1171.2" clip-path="url(#terminal-line-2)">╭──────────────────────────────────────────────────────────────────────────────────────────────╮</text><text class="terminal-r1" x="1220" y="68.8" textLength="12.2" clip-path="url(#terminal-line-2)">
</text><text class="terminal-r3" x="24.4" y="93.2" textLength="12.2" clip-path="url(#terminal-line-3)">│</text><text class="terminal-r3" x="1183.4" y="93.2" textLength="12.2" clip-path="url(#terminal-line-3)">│</text><text class="terminal-r1" x="1220" y="93.2" textLength="12.2" clip-path="url(#terminal-line-3)">
</text><text class="terminal-r3" x="24.4" y="117.6" textLength="12.2" clip-path="url(#terminal-line-4)">│</text><text class="terminal-r4" x="61" y="117.6" textLength="73.2" clip-path="url(#terminal-line-4)">Icarus</text><text class="terminal-r3" x="1183.4" y="117.6" textLength="12.2" clip-path="url(#terminal-line-4)">│</text><text class="terminal-r1" x="1220" y="117.6" textLength="12.2" clip-path="url(#terminal-line-4)">
</text><text class="terminal-r3" x="24.4" y="142" textLength="12.2" clip-path="url(#terminal-line-5)">│</text><text class="terminal-r2" x="61" y="142" textLength="402.6" clip-path="url(#terminal-line-5)">Workspace&#160;&#160;/workspace/icarus-demo</text><text class="terminal-r3" x="1183.4" y="142" textLength="12.2" clip-path="url(#terminal-line-5)">│</text><text class="terminal-r1" x="1220" y="142" textLength="12.2" clip-path="url(#terminal-line-5)">
</text><text class="terminal-r3" x="24.4" y="166.4" textLength="12.2" clip-path="url(#terminal-line-6)">│</text><text class="terminal-r2" x="61" y="166.4" textLength="841.8" clip-path="url(#terminal-line-6)">Enter&#160;submit&#160;·&#160;Shift+Enter/Ctrl+J&#160;newline&#160;·&#160;Ctrl+C&#160;clear/restore/exit</text><text class="terminal-r3" x="1183.4" y="166.4" textLength="12.2" clip-path="url(#terminal-line-6)">│</text><text class="terminal-r1" x="1220" y="166.4" textLength="12.2" clip-path="url(#terminal-line-6)">
</text><text class="terminal-r3" x="24.4" y="190.8" textLength="12.2" clip-path="url(#terminal-line-7)">│</text><text class="terminal-r3" x="1183.4" y="190.8" textLength="12.2" clip-path="url(#terminal-line-7)">│</text><text class="terminal-r1" x="1220" y="190.8" textLength="12.2" clip-path="url(#terminal-line-7)">
</text><text class="terminal-r3" x="24.4" y="215.2" textLength="1171.2" clip-path="url(#terminal-line-8)">╰──────────────────────────────────────────────────────────────────────────────────────────────╯</text><text class="terminal-r1" x="1220" y="215.2" textLength="12.2" clip-path="url(#terminal-line-8)">
</text><text class="terminal-r1" x="1220" y="239.6" textLength="12.2" clip-path="url(#terminal-line-9)">
</text><text class="terminal-r5" x="24.4" y="264" textLength="12.2" clip-path="url(#terminal-line-10)">█</text><text class="terminal-r6" x="48.8" y="264" textLength="36.6" clip-path="url(#terminal-line-10)">You</text><text class="terminal-r1" x="1220" y="264" textLength="12.2" clip-path="url(#terminal-line-10)">
</text><text class="terminal-r5" x="24.4" y="288.4" textLength="12.2" clip-path="url(#terminal-line-11)">█</text><text class="terminal-r7" x="48.8" y="288.4" textLength="463.6" clip-path="url(#terminal-line-11)">Build&#160;the&#160;persistent&#160;Textual&#160;interface</text><text class="terminal-r1" x="1220" y="288.4" textLength="12.2" clip-path="url(#terminal-line-11)">
</text><text class="terminal-r1" x="1220" y="312.8" textLength="12.2" clip-path="url(#terminal-line-12)">
</text><text class="terminal-r8" x="24.4" y="337.2" textLength="12.2" clip-path="url(#terminal-line-13)">█</text><text class="terminal-r6" x="48.8" y="337.2" textLength="73.2" clip-path="url(#terminal-line-13)">Icarus</text><text class="terminal-r1" x="1220" y="337.2" textLength="12.2" clip-path="url(#terminal-line-13)">
</text><text class="terminal-r8" x="24.4" y="361.6" textLength="12.2" clip-path="url(#terminal-line-14)">█</text><text class="terminal-r1" x="1220" y="361.6" textLength="12.2" clip-path="url(#terminal-line-14)">
</text><text class="terminal-r8" x="24.4" y="386" textLength="12.2" clip-path="url(#terminal-line-15)">█</text><text class="terminal-r1" x="1220" y="386" textLength="12.2" clip-path="url(#terminal-line-15)">
</text><text class="terminal-r8" x="24.4" y="410.4" textLength="12.2" clip-path="url(#terminal-line-16)">█</text><text class="terminal-r9" x="488" y="410.4" textLength="256.2" clip-path="url(#terminal-line-16)">Implementation&#160;update</text><text class="terminal-r1" x="1220" y="410.4" textLength="12.2" clip-path="url(#terminal-line-16)">
</text><text class="terminal-r8" x="24.4" y="434.8" textLength="12.2" clip-path="url(#terminal-line-17)">█</text><text class="terminal-r1" x="1220" y="434.8" textLength="12.2" clip-path="url(#terminal-line-17)">
</text><text class="terminal-r8" x="24.4" y="459.2" textLength="12.2" clip-path="url(#terminal-line-18)">█</text><text class="terminal-r10" x="73.2" y="459.2" textLength="292.8" clip-path="url(#terminal-line-18)">The&#160;runtime&#160;now&#160;streams&#160;</text><text class="terminal-r11" x="366" y="459.2" textLength="97.6" clip-path="url(#terminal-line-18)">Markdown</text><text class="terminal-r10" x="463.6" y="459.2" textLength="207.4" clip-path="url(#terminal-line-18)">&#160;while&#160;tools&#160;run.</text><text class="terminal-r1" x="1220" y="459.2" textLength="12.2" clip-path="url(#terminal-line-18)">
</text><text class="terminal-r8" x="24.4" y="483.6" textLength="12.2" clip-path="url(#terminal-line-19)">█</text><text class="terminal-r1" x="1220" y="483.6" textLength="12.2" clip-path="url(#terminal-line-19)">
</text><text class="terminal-r8" x="24.4" y="508" textLength="12.2" clip-path="url(#terminal-line-20)">█</text><text class="terminal-r12" x="73.2" y="508" textLength="24.4" clip-path="url(#terminal-line-20)">•&#160;</text><text class="terminal-r10" x="97.6" y="508" textLength="280.6" clip-path="url(#terminal-line-20)">Composer&#160;stays&#160;editable</text><text class="terminal-r1" x="1220" y="508" textLength="12.2" clip-path="url(#terminal-line-20)">
</text><text class="terminal-r8" x="24.4" y="532.4" textLength="12.2" clip-path="url(#terminal-line-21)">█</text><text class="terminal-r12" x="73.2" y="532.4" textLength="24.4" clip-path="url(#terminal-line-21)">•&#160;</text><text class="terminal-r10" x="97.6" y="532.4" textLength="231.8" clip-path="url(#terminal-line-21)">Queue&#160;remains&#160;local</text><text class="terminal-r1" x="1220" y="532.4" textLength="12.2" clip-path="url(#terminal-line-21)">
</text><text class="terminal-r8" x="24.4" y="556.8" textLength="12.2" clip-path="url(#terminal-line-22)">█</text><text class="terminal-r1" x="1220" y="556.8" textLength="12.2" clip-path="url(#terminal-line-22)">
</text><text class="terminal-r8" x="24.4" y="581.2" textLength="12.2" clip-path="url(#terminal-line-23)">█</text><text class="terminal-r1" x="1220" y="581.2" textLength="12.2" clip-path="url(#terminal-line-23)">
</text><text class="terminal-r8" x="24.4" y="605.6" textLength="12.2" clip-path="url(#terminal-line-24)">█</text><text class="terminal-r13" x="97.6" y="605.6" textLength="61" clip-path="url(#terminal-line-24)">await</text><text class="terminal-r12" x="170.8" y="605.6" textLength="85.4" clip-path="url(#terminal-line-24)">service</text><text class="terminal-r15" x="256.2" y="605.6" textLength="12.2" clip-path="url(#terminal-line-24)">.</text><text class="terminal-r12" x="268.4" y="605.6" textLength="73.2" clip-path="url(#terminal-line-24)">submit</text><text class="terminal-r14" x="341.6" y="605.6" textLength="12.2" clip-path="url(#terminal-line-24)">(</text><text class="terminal-r12" x="353.8" y="605.6" textLength="73.2" clip-path="url(#terminal-line-24)">prompt</text><text class="terminal-r14" x="427" y="605.6" textLength="12.2" clip-path="url(#terminal-line-24)">)</text><text class="terminal-r1" x="1220" y="605.6" textLength="12.2" clip-path="url(#terminal-line-24)">
</text><text class="terminal-r8" x="24.4" y="630" textLength="12.2" clip-path="url(#terminal-line-25)">█</text><text class="terminal-r1" x="1220" y="630" textLength="12.2" clip-path="url(#terminal-line-25)">
</text><text class="terminal-r8" x="24.4" y="654.4" textLength="12.2" clip-path="url(#terminal-line-26)">█</text><text class="terminal-r1" x="1220" y="654.4" textLength="12.2" clip-path="url(#terminal-line-26)">
</text><text class="terminal-r1" x="1220" y="678.8" textLength="12.2" clip-path="url(#terminal-line-27)">
</text><text class="terminal-r1" x="1220" y="703.2" textLength="12.2" clip-path="url(#terminal-line-28)">
</text><text class="terminal-r1" x="1220" y="727.6" textLength="12.2" clip-path="url(#terminal-line-29)">
</text><text class="terminal-r1" x="1220" y="752" textLength="12.2" clip-path="url(#terminal-line-30)">
</text><text class="terminal-r8" x="24.4" y="776.4" textLength="1195.6" clip-path="url(#terminal-line-31)">╭─────────────────────────────────────────────────────────────────────────────────────────────────</text><text class="terminal-r1" x="1220" y="776.4" textLength="12.2" clip-path="url(#terminal-line-31)">
</text><text class="terminal-r8" x="24.4" y="800.8" textLength="12.2" clip-path="url(#terminal-line-32)">│</text><text class="terminal-r8" x="48.8" y="800.8" textLength="12.2" clip-path="url(#terminal-line-32)">❯</text><text class="terminal-r10" x="85.4" y="800.8" textLength="414.8" clip-path="url(#terminal-line-32)">Add&#160;a&#160;focused&#160;regression&#160;test&#160;next</text><text class="terminal-r1" x="1220" y="800.8" textLength="12.2" clip-path="url(#terminal-line-32)">
</text><text class="terminal-r2" x="24.4" y="825.2" textLength="817.4" clip-path="url(#terminal-line-33)">Running&#160;·&#160;Agent&#160;is&#160;running&#160;·&#160;Enter&#160;submit&#160;·&#160;Shift+Enter/Ctrl+J&#160;line</text>
    </g>
    </g>
</svg>
